<svg viewBox="2 0 42 42" fill="none" xmlns="http://www.w3.org/2000/svg" width="44" height="44" color="#000">
	<path d="M37.208 7.834H9.791a1.958 1.958 0 00-1.958 1.958V37.21c0 1.081.877 1.958 1.958 1.958h27.417a1.958 1.958 0 001.958-1.958V9.792a1.958 1.958 0 00-1.958-1.958z" stroke="currentColor" stroke-width="3" stroke-linecap="round" stroke-linejoin="round"></path>
	<path d="M31.333 31.334h.004v.004h-.004v-.004zM23.5 31.334h.004v.004H23.5v-.004zM15.667 31.334h.004v.004h-.004v-.004zM31.333 23.5h.004v.004h-.004V23.5zM23.5 23.5h.004v.004H23.5V23.5zM15.667 23.5h.004v.004h-.004V23.5zM7.833 15.666h31.333M31.333 3.916v3.917M15.667 3.916v3.917" stroke="currentColor" stroke-width="3" stroke-linecap="round" stroke-linejoin="round"></path>
</svg>
