<svg viewBox="0 0 28 26" fill="none" xmlns="http://www.w3.org/2000/svg" width="44" height="44" color="#000">
	<path d="M27 11.919h-1.22a10.612 10.612 0 00-1.49-3.739 10.155 10.155 0 00-2.75-2.857l-1.11 1.733c1.727 1.202 2.938 3.057 3.378 5.174a8.658 8.658 0 01-1.018 6.17 1.079 1.079 0 000 1.043l1.57 2.912-1.7 1.043-1.06-1.93a1.03 1.03 0 00-.267-.313.981.981 0 00-1.133-.053 7.753 7.753 0 01-4.2 1.253h-4a7.649 7.649 0 01-3.53-.866.962.962 0 00-.734-.062c-.244.077-.45.249-.576.48l-.82 1.491-1.7-1.043 1.13-2.087a1.08 1.08 0 00-.07-1.159 8.334 8.334 0 01-1.29-2.504 1.052 1.052 0 00-.243-.414.995.995 0 00-.397-.254L2 15.342v-2.536l1.49-.26a.984.984 0 00.505-.255c.142-.133.244-.306.295-.497a8.31 8.31 0 011.52-3.131c.144-.205.212-.457.19-.71-.055-1.033.029-2.07.25-3.078.844.267 1.656.634 2.42 1.095l1.05-1.774a14.388 14.388 0 00-3.93-1.67.964.964 0 00-.724.113 1.037 1.037 0 00-.456.597A16.17 16.17 0 004 7.745a10.448 10.448 0 00-1.45 2.859l-1.71.271a.99.99 0 00-.606.36 1.072 1.072 0 00-.234.684v4.174c0 .22.065.433.187.61.122.178.294.312.493.382l2 .688c.256.734.592 1.434 1 2.088l-.78 1.45a2.167 2.167 0 00-.195 1.576c.137.532.47.986.925 1.263l1.7 1.043c.304.184.649.281 1 .282.176.002.35-.023.52-.073.256-.067.496-.187.707-.352a2.06 2.06 0 00.523-.608l.37-.678a9.438 9.438 0 003.55.678h4a9.598 9.598 0 004.35-1.044l.57 1.044c.13.24.306.452.515.62.21.17.45.294.705.366a1.919 1.919 0 001.53-.214l1.7-1.043c.228-.137.428-.32.589-.539.16-.218.278-.467.346-.733a2.176 2.176 0 00-.205-1.588l-1.3-2.369a10.885 10.885 0 001.2-4.936h1c.265 0 .52-.11.707-.306.188-.195.293-.46.293-.737 0-.277-.105-.543-.293-.738a.98.98 0 00-.707-.306z" fill="currentColor"></path>
	<path d="M8 11.5a1 1 0 100-2 1 1 0 000 2zM15 8.5a4 4 0 100-8 4 4 0 000 8zm0-6a2 2 0 110 4 2 2 0 010-4z" fill="currentColor"></path>
</svg>
